<mxfile host="app.diagrams.net" agent="Mozilla/5.0 (Windows NT 10.0; Win64; x64) AppleWebKit/537.36 (KHTML, like Gecko) Chrome/136.0.0.0 Safari/537.36" version="27.0.9">
  <diagram name="Page-1" id="TdV_6l9ybguX8Ig5Xw0B">
    <mxGraphModel dx="1425" dy="729" grid="1" gridSize="10" guides="1" tooltips="1" connect="1" arrows="1" fold="1" page="1" pageScale="1" pageWidth="850" pageHeight="1100" math="0" shadow="0">
      <root>
        <mxCell id="0" />
        <mxCell id="1" parent="0" />
        <mxCell id="5svUMUnhyd_Y4qns_d_N-1" value="&lt;b&gt;Client&lt;/b&gt;" style="rounded=0;whiteSpace=wrap;html=1;" vertex="1" parent="1">
          <mxGeometry x="120" y="160" width="120" height="60" as="geometry" />
        </mxCell>
        <mxCell id="5svUMUnhyd_Y4qns_d_N-2" value="&lt;b&gt;Controller&lt;/b&gt;" style="rounded=0;whiteSpace=wrap;html=1;" vertex="1" parent="1">
          <mxGeometry x="120" y="280" width="120" height="60" as="geometry" />
        </mxCell>
        <mxCell id="5svUMUnhyd_Y4qns_d_N-3" value="&lt;b&gt;VIewService/&lt;/b&gt;&lt;div&gt;&lt;b&gt;BussinessService&lt;/b&gt;&lt;/div&gt;" style="rounded=0;whiteSpace=wrap;html=1;" vertex="1" parent="1">
          <mxGeometry x="120" y="400" width="120" height="60" as="geometry" />
        </mxCell>
        <mxCell id="5svUMUnhyd_Y4qns_d_N-4" value="&lt;b&gt;Data Access Layer&lt;/b&gt;" style="rounded=0;whiteSpace=wrap;html=1;" vertex="1" parent="1">
          <mxGeometry x="120" y="520" width="120" height="60" as="geometry" />
        </mxCell>
        <mxCell id="5svUMUnhyd_Y4qns_d_N-5" value="" style="endArrow=classic;html=1;rounded=0;exitX=0.337;exitY=1;exitDx=0;exitDy=0;exitPerimeter=0;entryX=0.339;entryY=0.008;entryDx=0;entryDy=0;entryPerimeter=0;" edge="1" parent="1" source="5svUMUnhyd_Y4qns_d_N-1" target="5svUMUnhyd_Y4qns_d_N-2">
          <mxGeometry width="50" height="50" relative="1" as="geometry">
            <mxPoint x="390" y="420" as="sourcePoint" />
            <mxPoint x="160" y="281" as="targetPoint" />
          </mxGeometry>
        </mxCell>
        <mxCell id="5svUMUnhyd_Y4qns_d_N-6" value="" style="endArrow=classic;html=1;rounded=0;entryX=0.665;entryY=1.004;entryDx=0;entryDy=0;entryPerimeter=0;dashed=1;" edge="1" parent="1" target="5svUMUnhyd_Y4qns_d_N-1">
          <mxGeometry width="50" height="50" relative="1" as="geometry">
            <mxPoint x="200" y="280" as="sourcePoint" />
            <mxPoint x="171" y="290" as="targetPoint" />
          </mxGeometry>
        </mxCell>
        <mxCell id="5svUMUnhyd_Y4qns_d_N-7" style="edgeStyle=orthogonalEdgeStyle;rounded=0;orthogonalLoop=1;jettySize=auto;html=1;entryX=0.334;entryY=1.01;entryDx=0;entryDy=0;entryPerimeter=0;exitX=0.332;exitY=0.009;exitDx=0;exitDy=0;exitPerimeter=0;dashed=1;" edge="1" parent="1">
          <mxGeometry relative="1" as="geometry">
            <mxPoint x="200.00000000000003" y="400.53999999999996" as="sourcePoint" />
            <mxPoint x="200.24000000000004" y="340.6" as="targetPoint" />
            <Array as="points">
              <mxPoint x="200.16" y="400" />
            </Array>
          </mxGeometry>
        </mxCell>
        <mxCell id="5svUMUnhyd_Y4qns_d_N-11" value="" style="endArrow=classic;html=1;rounded=0;entryX=0.667;entryY=-0.016;entryDx=0;entryDy=0;entryPerimeter=0;" edge="1" parent="1">
          <mxGeometry width="50" height="50" relative="1" as="geometry">
            <mxPoint x="160" y="340" as="sourcePoint" />
            <mxPoint x="160.03999999999996" y="399.03999999999996" as="targetPoint" />
          </mxGeometry>
        </mxCell>
        <mxCell id="5svUMUnhyd_Y4qns_d_N-12" value="" style="endArrow=classic;html=1;rounded=0;entryX=0.667;entryY=-0.016;entryDx=0;entryDy=0;entryPerimeter=0;" edge="1" parent="1">
          <mxGeometry width="50" height="50" relative="1" as="geometry">
            <mxPoint x="160" y="460" as="sourcePoint" />
            <mxPoint x="160.03999999999996" y="519.04" as="targetPoint" />
          </mxGeometry>
        </mxCell>
        <mxCell id="5svUMUnhyd_Y4qns_d_N-13" style="edgeStyle=orthogonalEdgeStyle;rounded=0;orthogonalLoop=1;jettySize=auto;html=1;entryX=0.334;entryY=1.01;entryDx=0;entryDy=0;entryPerimeter=0;exitX=0.332;exitY=0.009;exitDx=0;exitDy=0;exitPerimeter=0;dashed=1;" edge="1" parent="1">
          <mxGeometry relative="1" as="geometry">
            <mxPoint x="200.00000000000003" y="520.54" as="sourcePoint" />
            <mxPoint x="200.24000000000004" y="460.6" as="targetPoint" />
            <Array as="points">
              <mxPoint x="200.16" y="520" />
            </Array>
          </mxGeometry>
        </mxCell>
        <mxCell id="5svUMUnhyd_Y4qns_d_N-14" value="Return HTML View" style="text;html=1;align=center;verticalAlign=middle;whiteSpace=wrap;rounded=0;" vertex="1" parent="1">
          <mxGeometry x="200" y="240" width="100" height="30" as="geometry" />
        </mxCell>
        <mxCell id="5svUMUnhyd_Y4qns_d_N-15" value="Request" style="text;html=1;align=center;verticalAlign=middle;whiteSpace=wrap;rounded=0;" vertex="1" parent="1">
          <mxGeometry x="60" y="240" width="100" height="30" as="geometry" />
        </mxCell>
        <mxCell id="5svUMUnhyd_Y4qns_d_N-16" value="Send request data to logic layer" style="text;html=1;align=center;verticalAlign=middle;whiteSpace=wrap;rounded=0;" vertex="1" parent="1">
          <mxGeometry x="60" y="360" width="100" height="30" as="geometry" />
        </mxCell>
        <mxCell id="5svUMUnhyd_Y4qns_d_N-17" value="Get Data from DAO layer" style="text;html=1;align=center;verticalAlign=middle;whiteSpace=wrap;rounded=0;" vertex="1" parent="1">
          <mxGeometry x="50" y="480" width="100" height="30" as="geometry" />
        </mxCell>
        <mxCell id="5svUMUnhyd_Y4qns_d_N-18" value="Response data" style="text;html=1;align=center;verticalAlign=middle;whiteSpace=wrap;rounded=0;" vertex="1" parent="1">
          <mxGeometry x="200" y="480" width="100" height="30" as="geometry" />
        </mxCell>
        <mxCell id="5svUMUnhyd_Y4qns_d_N-19" value="Process bussiness logic/ set UI data context" style="text;html=1;align=center;verticalAlign=middle;whiteSpace=wrap;rounded=0;" vertex="1" parent="1">
          <mxGeometry x="210" y="360" width="160" height="30" as="geometry" />
        </mxCell>
        <mxCell id="5svUMUnhyd_Y4qns_d_N-20" value="&lt;b&gt;Client&lt;/b&gt;" style="rounded=0;whiteSpace=wrap;html=1;" vertex="1" parent="1">
          <mxGeometry x="669" y="160" width="120" height="60" as="geometry" />
        </mxCell>
        <mxCell id="5svUMUnhyd_Y4qns_d_N-21" value="&lt;b&gt;Controller&lt;/b&gt;" style="rounded=0;whiteSpace=wrap;html=1;" vertex="1" parent="1">
          <mxGeometry x="500" y="280" width="120" height="60" as="geometry" />
        </mxCell>
        <mxCell id="5svUMUnhyd_Y4qns_d_N-22" value="&lt;b&gt;VIewService/&lt;/b&gt;&lt;div&gt;&lt;b&gt;BussinessService&lt;/b&gt;&lt;/div&gt;" style="rounded=0;whiteSpace=wrap;html=1;" vertex="1" parent="1">
          <mxGeometry x="500" y="400" width="120" height="60" as="geometry" />
        </mxCell>
        <mxCell id="5svUMUnhyd_Y4qns_d_N-23" value="&lt;b&gt;Data Access Layer&lt;/b&gt;" style="rounded=0;whiteSpace=wrap;html=1;" vertex="1" parent="1">
          <mxGeometry x="500" y="520" width="120" height="60" as="geometry" />
        </mxCell>
        <mxCell id="5svUMUnhyd_Y4qns_d_N-24" value="" style="endArrow=classic;html=1;rounded=0;exitX=-0.004;exitY=0.168;exitDx=0;exitDy=0;entryX=0.409;entryY=-0.029;entryDx=0;entryDy=0;entryPerimeter=0;exitPerimeter=0;" edge="1" source="5svUMUnhyd_Y4qns_d_N-20" target="5svUMUnhyd_Y4qns_d_N-21" parent="1">
          <mxGeometry width="50" height="50" relative="1" as="geometry">
            <mxPoint x="770" y="420" as="sourcePoint" />
            <mxPoint x="540" y="281" as="targetPoint" />
            <Array as="points">
              <mxPoint x="589" y="170" />
              <mxPoint x="549" y="170" />
              <mxPoint x="549" y="240" />
            </Array>
          </mxGeometry>
        </mxCell>
        <mxCell id="5svUMUnhyd_Y4qns_d_N-25" value="" style="endArrow=classic;html=1;rounded=0;entryX=-0.006;entryY=0.677;entryDx=0;entryDy=0;entryPerimeter=0;dashed=1;" edge="1" target="5svUMUnhyd_Y4qns_d_N-20" parent="1">
          <mxGeometry width="50" height="50" relative="1" as="geometry">
            <mxPoint x="589" y="280" as="sourcePoint" />
            <mxPoint x="551" y="290" as="targetPoint" />
            <Array as="points">
              <mxPoint x="589" y="280" />
              <mxPoint x="589" y="200" />
            </Array>
          </mxGeometry>
        </mxCell>
        <mxCell id="5svUMUnhyd_Y4qns_d_N-26" style="edgeStyle=orthogonalEdgeStyle;rounded=0;orthogonalLoop=1;jettySize=auto;html=1;entryX=0.334;entryY=1.01;entryDx=0;entryDy=0;entryPerimeter=0;exitX=0.332;exitY=0.009;exitDx=0;exitDy=0;exitPerimeter=0;dashed=1;" edge="1" parent="1">
          <mxGeometry relative="1" as="geometry">
            <mxPoint x="580" y="400.53999999999996" as="sourcePoint" />
            <mxPoint x="580.24" y="340.6" as="targetPoint" />
            <Array as="points">
              <mxPoint x="580.16" y="400" />
            </Array>
          </mxGeometry>
        </mxCell>
        <mxCell id="5svUMUnhyd_Y4qns_d_N-27" value="" style="endArrow=classic;html=1;rounded=0;entryX=0.667;entryY=-0.016;entryDx=0;entryDy=0;entryPerimeter=0;" edge="1" parent="1">
          <mxGeometry width="50" height="50" relative="1" as="geometry">
            <mxPoint x="540" y="340" as="sourcePoint" />
            <mxPoint x="540.04" y="399.03999999999996" as="targetPoint" />
          </mxGeometry>
        </mxCell>
        <mxCell id="5svUMUnhyd_Y4qns_d_N-28" value="" style="endArrow=classic;html=1;rounded=0;entryX=0.667;entryY=-0.016;entryDx=0;entryDy=0;entryPerimeter=0;" edge="1" parent="1">
          <mxGeometry width="50" height="50" relative="1" as="geometry">
            <mxPoint x="540" y="460" as="sourcePoint" />
            <mxPoint x="540.04" y="519.04" as="targetPoint" />
          </mxGeometry>
        </mxCell>
        <mxCell id="5svUMUnhyd_Y4qns_d_N-29" style="edgeStyle=orthogonalEdgeStyle;rounded=0;orthogonalLoop=1;jettySize=auto;html=1;entryX=0.334;entryY=1.01;entryDx=0;entryDy=0;entryPerimeter=0;exitX=0.332;exitY=0.009;exitDx=0;exitDy=0;exitPerimeter=0;dashed=1;" edge="1" parent="1">
          <mxGeometry relative="1" as="geometry">
            <mxPoint x="580" y="520.54" as="sourcePoint" />
            <mxPoint x="580.24" y="460.6" as="targetPoint" />
            <Array as="points">
              <mxPoint x="580.16" y="520" />
            </Array>
          </mxGeometry>
        </mxCell>
        <mxCell id="5svUMUnhyd_Y4qns_d_N-30" value="Return HTML View" style="text;html=1;align=center;verticalAlign=middle;whiteSpace=wrap;rounded=0;" vertex="1" parent="1">
          <mxGeometry x="590" y="230" width="100" height="30" as="geometry" />
        </mxCell>
        <mxCell id="5svUMUnhyd_Y4qns_d_N-31" value="Request" style="text;html=1;align=center;verticalAlign=middle;whiteSpace=wrap;rounded=0;" vertex="1" parent="1">
          <mxGeometry x="440" y="240" width="100" height="30" as="geometry" />
        </mxCell>
        <mxCell id="5svUMUnhyd_Y4qns_d_N-32" value="Send request data to logic layer" style="text;html=1;align=center;verticalAlign=middle;whiteSpace=wrap;rounded=0;" vertex="1" parent="1">
          <mxGeometry x="440" y="360" width="100" height="30" as="geometry" />
        </mxCell>
        <mxCell id="5svUMUnhyd_Y4qns_d_N-33" value="Get Data from DAO layer" style="text;html=1;align=center;verticalAlign=middle;whiteSpace=wrap;rounded=0;" vertex="1" parent="1">
          <mxGeometry x="430" y="480" width="100" height="30" as="geometry" />
        </mxCell>
        <mxCell id="5svUMUnhyd_Y4qns_d_N-34" value="Response data" style="text;html=1;align=center;verticalAlign=middle;whiteSpace=wrap;rounded=0;" vertex="1" parent="1">
          <mxGeometry x="580" y="480" width="100" height="30" as="geometry" />
        </mxCell>
        <mxCell id="5svUMUnhyd_Y4qns_d_N-35" value="Process bussiness logic/ set UI data context" style="text;html=1;align=center;verticalAlign=middle;whiteSpace=wrap;rounded=0;" vertex="1" parent="1">
          <mxGeometry x="590" y="360" width="160" height="30" as="geometry" />
        </mxCell>
        <mxCell id="5svUMUnhyd_Y4qns_d_N-36" value="&lt;b&gt;V2 RestController&lt;/b&gt;" style="rounded=0;whiteSpace=wrap;html=1;" vertex="1" parent="1">
          <mxGeometry x="829" y="280" width="120" height="60" as="geometry" />
        </mxCell>
        <mxCell id="5svUMUnhyd_Y4qns_d_N-38" value="" style="endArrow=classic;html=1;rounded=0;entryX=0.67;entryY=-0.014;entryDx=0;entryDy=0;entryPerimeter=0;" edge="1" parent="1" target="5svUMUnhyd_Y4qns_d_N-36">
          <mxGeometry width="50" height="50" relative="1" as="geometry">
            <mxPoint x="789" y="170" as="sourcePoint" />
            <mxPoint x="906.04" y="280" as="targetPoint" />
            <Array as="points">
              <mxPoint x="909" y="171" />
              <mxPoint x="909" y="180" />
            </Array>
          </mxGeometry>
        </mxCell>
        <mxCell id="5svUMUnhyd_Y4qns_d_N-40" value="" style="endArrow=classic;html=1;rounded=0;exitX=0.333;exitY=0;exitDx=0;exitDy=0;exitPerimeter=0;entryX=1.019;entryY=0.665;entryDx=0;entryDy=0;entryPerimeter=0;dashed=1;" edge="1" parent="1" source="5svUMUnhyd_Y4qns_d_N-36" target="5svUMUnhyd_Y4qns_d_N-20">
          <mxGeometry width="50" height="50" relative="1" as="geometry">
            <mxPoint x="789" y="240" as="sourcePoint" />
            <mxPoint x="839" y="190" as="targetPoint" />
            <Array as="points">
              <mxPoint x="869" y="200" />
            </Array>
          </mxGeometry>
        </mxCell>
        <mxCell id="5svUMUnhyd_Y4qns_d_N-41" value="Return JSON data" style="text;html=1;align=center;verticalAlign=middle;whiteSpace=wrap;rounded=0;" vertex="1" parent="1">
          <mxGeometry x="779" y="230" width="100" height="30" as="geometry" />
        </mxCell>
        <mxCell id="5svUMUnhyd_Y4qns_d_N-42" value="Request" style="text;html=1;align=center;verticalAlign=middle;whiteSpace=wrap;rounded=0;" vertex="1" parent="1">
          <mxGeometry x="889" y="175" width="100" height="30" as="geometry" />
        </mxCell>
        <mxCell id="5svUMUnhyd_Y4qns_d_N-43" value="&lt;b&gt;BussinessService&lt;/b&gt;" style="rounded=0;whiteSpace=wrap;html=1;" vertex="1" parent="1">
          <mxGeometry x="829" y="400" width="120" height="60" as="geometry" />
        </mxCell>
        <mxCell id="5svUMUnhyd_Y4qns_d_N-44" value="" style="endArrow=classic;html=1;rounded=0;entryX=0.667;entryY=-0.016;entryDx=0;entryDy=0;entryPerimeter=0;" edge="1" parent="1">
          <mxGeometry width="50" height="50" relative="1" as="geometry">
            <mxPoint x="869" y="340" as="sourcePoint" />
            <mxPoint x="869.04" y="399.03999999999996" as="targetPoint" />
          </mxGeometry>
        </mxCell>
        <mxCell id="5svUMUnhyd_Y4qns_d_N-45" style="edgeStyle=orthogonalEdgeStyle;rounded=0;orthogonalLoop=1;jettySize=auto;html=1;entryX=0.334;entryY=1.01;entryDx=0;entryDy=0;entryPerimeter=0;exitX=0.332;exitY=0.009;exitDx=0;exitDy=0;exitPerimeter=0;dashed=1;" edge="1" parent="1">
          <mxGeometry relative="1" as="geometry">
            <mxPoint x="909" y="400.53999999999996" as="sourcePoint" />
            <mxPoint x="909.24" y="340.6" as="targetPoint" />
            <Array as="points">
              <mxPoint x="909.16" y="400" />
            </Array>
          </mxGeometry>
        </mxCell>
        <mxCell id="5svUMUnhyd_Y4qns_d_N-46" value="&lt;b&gt;Data Access Layer&lt;/b&gt;" style="rounded=0;whiteSpace=wrap;html=1;" vertex="1" parent="1">
          <mxGeometry x="829" y="520" width="120" height="60" as="geometry" />
        </mxCell>
        <mxCell id="5svUMUnhyd_Y4qns_d_N-47" value="Send request data to logic layer" style="text;html=1;align=center;verticalAlign=middle;whiteSpace=wrap;rounded=0;" vertex="1" parent="1">
          <mxGeometry x="769" y="360" width="100" height="30" as="geometry" />
        </mxCell>
        <mxCell id="5svUMUnhyd_Y4qns_d_N-48" value="Process bussiness logic" style="text;html=1;align=center;verticalAlign=middle;whiteSpace=wrap;rounded=0;" vertex="1" parent="1">
          <mxGeometry x="909" y="360" width="160" height="30" as="geometry" />
        </mxCell>
        <mxCell id="5svUMUnhyd_Y4qns_d_N-49" value="Get Data from DAO layer" style="text;html=1;align=center;verticalAlign=middle;whiteSpace=wrap;rounded=0;" vertex="1" parent="1">
          <mxGeometry x="759" y="480" width="100" height="30" as="geometry" />
        </mxCell>
        <mxCell id="5svUMUnhyd_Y4qns_d_N-50" value="Response data" style="text;html=1;align=center;verticalAlign=middle;whiteSpace=wrap;rounded=0;" vertex="1" parent="1">
          <mxGeometry x="909" y="480" width="100" height="30" as="geometry" />
        </mxCell>
        <mxCell id="5svUMUnhyd_Y4qns_d_N-51" value="" style="endArrow=classic;html=1;rounded=0;entryX=0.667;entryY=-0.016;entryDx=0;entryDy=0;entryPerimeter=0;" edge="1" parent="1">
          <mxGeometry width="50" height="50" relative="1" as="geometry">
            <mxPoint x="869" y="460" as="sourcePoint" />
            <mxPoint x="869.04" y="519.04" as="targetPoint" />
          </mxGeometry>
        </mxCell>
        <mxCell id="5svUMUnhyd_Y4qns_d_N-52" style="edgeStyle=orthogonalEdgeStyle;rounded=0;orthogonalLoop=1;jettySize=auto;html=1;entryX=0.334;entryY=1.01;entryDx=0;entryDy=0;entryPerimeter=0;exitX=0.332;exitY=0.009;exitDx=0;exitDy=0;exitPerimeter=0;dashed=1;" edge="1" parent="1">
          <mxGeometry relative="1" as="geometry">
            <mxPoint x="909" y="520.54" as="sourcePoint" />
            <mxPoint x="909.24" y="460.6" as="targetPoint" />
            <Array as="points">
              <mxPoint x="909.16" y="520" />
            </Array>
          </mxGeometry>
        </mxCell>
        <mxCell id="5svUMUnhyd_Y4qns_d_N-53" value="JAPAN TA" style="text;html=1;align=center;verticalAlign=middle;whiteSpace=wrap;rounded=0;fontStyle=1;fontSize=18;" vertex="1" parent="1">
          <mxGeometry x="130" y="90" width="100" height="30" as="geometry" />
        </mxCell>
        <mxCell id="5svUMUnhyd_Y4qns_d_N-54" value="ASEAN TA" style="text;html=1;align=center;verticalAlign=middle;whiteSpace=wrap;rounded=0;fontStyle=1;fontSize=18;" vertex="1" parent="1">
          <mxGeometry x="679" y="90" width="100" height="30" as="geometry" />
        </mxCell>
      </root>
    </mxGraphModel>
  </diagram>
</mxfile>
